Coordinates
version=1
nRows=32
nColumns=12
inDegrees=yes

Units are S.I. units (second, meters, Newtons, ...)
Angles are in degrees

endheader
time	SC_y	SC_z	SC_x	AC_y	AC_z	AC_x	GH_y	GH_z	GH_yy	EL_x	PS_y
       0.0              -51.97          26.39          1.454          52.41         -9.295          6.351         -40.47          16.43         -56.51          81.13          151.5
   0.02292              -51.97          26.39          1.466          52.41         -9.292          6.352         -40.44          16.43         -56.48          81.13          151.5
   0.04584              -51.97          26.39          1.479          52.41         -9.289          6.353         -40.41          16.42         -56.45          81.14          151.5
   0.06876              -51.97          26.38          1.493           52.4         -9.286          6.354         -40.38          16.42         -56.42          81.15          151.5
   0.09168              -51.97          26.38          1.507           52.4         -9.283          6.355         -40.35          16.41         -56.39          81.15          151.5
    0.1146              -51.97          26.38          1.523           52.4         -9.279          6.356         -40.31          16.41         -56.35          81.16          151.5
    0.1375              -51.97          26.38           1.54           52.4         -9.276          6.358         -40.27           16.4         -56.31          81.17          151.5
    0.1604              -51.97          26.38          1.557          52.39         -9.272          6.359         -40.23           16.4         -56.27          81.17          151.5
    0.1834              -51.97          26.38          1.576          52.39         -9.267          6.361         -40.19          16.39         -56.22          81.18          151.5
    0.2063              -51.97          26.38          1.596          52.39         -9.263          6.363         -40.14          16.38         -56.18          81.19          151.4
    0.2292              -51.97          26.38          1.618          52.39         -9.258          6.365         -40.09          16.38         -56.12           81.2          151.4
    0.2521              -51.97          26.38          1.642          52.38         -9.252          6.367         -40.04          16.37         -56.07          81.21          151.4
     0.275              -51.97          26.37          1.667          52.38         -9.247          6.369         -39.98          16.36         -56.01          81.22          151.4
    0.2979              -51.97          26.37          1.694          52.37         -9.241          6.371         -39.92          16.35         -55.94          81.23          151.4
    0.3209              -51.96          26.37          1.724          52.37         -9.234          6.374         -39.85          16.34         -55.87          81.25          151.4
    0.3438              -51.96          26.37          1.756          52.36         -9.227          6.376         -39.78          16.33          -55.8          81.26          151.4
    0.3667              -51.96          26.37          1.791          52.36         -9.219          6.379          -39.7          16.31         -55.72          81.27          151.4
    0.3896              -51.96          26.37          1.829          52.35          -9.21          6.383         -39.61           16.3         -55.63          81.29          151.3
    0.4125              -51.96          26.36          1.871          52.35         -9.201          6.386         -39.51          16.29         -55.53          81.31          151.3
    0.4355              -51.96          26.36          1.916          52.34         -9.191           6.39         -39.41          16.27         -55.42          81.33          151.3
    0.4584              -51.96          26.36          1.966          52.33         -9.179          6.394         -39.29          16.25          -55.3          81.35          151.3
    0.4813              -51.95          26.36          2.021          52.32         -9.167          6.399         -39.17          16.23         -55.17          81.37          151.2
    0.5042              -51.95          26.35          2.081          52.32         -9.153          6.404         -39.03          16.21         -55.03           81.4          151.2
    0.5271              -51.95          26.35          2.149          52.31         -9.138           6.41         -38.87          16.19         -54.87          81.43          151.2
    0.5501              -51.95          26.34          2.223          52.29         -9.121          6.417          -38.7          16.16         -54.69          81.46          151.2
     0.573              -51.94          26.34          2.307          52.28         -9.102          6.424         -38.51          16.13         -54.49          81.49          151.1
    0.5959              -51.94          26.33            2.4          52.27         -9.081          6.432         -38.29           16.1         -54.27          81.53          151.1
    0.6188              -51.94          26.33          2.505          52.25         -9.057          6.441         -38.05          16.06         -54.02          81.58          151.0
    0.6417              -51.93          26.32          2.624          52.23         -9.031          6.451         -37.78          16.02         -53.74          81.63          151.0
    0.6647              -51.93          26.31          2.759          52.21           -9.0          6.462         -37.47          15.97         -53.42          81.69          150.9
    0.6876              -51.92          26.31          2.913          52.19         -8.965          6.476         -37.11          15.92         -53.06          81.75          150.8
    0.7105              -51.92           26.3          3.089          52.16         -8.925          6.491         -36.71          15.86         -52.64          81.83          150.8
